Coordinates
nRows=125
nColumns=2
inDegrees=yes
endheader
time	ankle_angle_r	
2.9375	  9.387704	
3	  9.412856	
3.0625	  9.410464	
3.125	  9.416551	
3.1875	  9.441286	
3.25	  9.458685	
3.3125	  9.468960	
3.375	  9.459769	
3.4375	  9.437650	
3.5	  9.431146	
3.5625	  9.441311	
3.625	  9.457531	
3.6875	  9.434517	
3.75	  9.389524	
3.8125	  9.390410	
3.875	  9.390017	
3.9375	  9.355338	
4	  9.340255	
4.0625	  9.352639	
4.125	  9.367208	
4.1875	  9.372424	
4.25	  9.376839	
4.3125	  9.387275	
4.375	  9.380151	
4.4375	  9.356209	
4.5	  9.341845	
4.5625	  9.349625	
4.625	  9.374767	
4.6875	  9.390046	
4.75	  9.395697	
4.8125	  9.399402	
4.875	  9.380539	
4.9375	  9.351502	
5	  9.338407	
5.0625	  9.366311	
5.125	  9.425117	
5.1875	  9.456986	
5.25	  9.478961	
5.3125	  9.505931	
5.375	  9.501816	
5.4375	  9.480812	
5.5	  9.454117	
5.5625	  9.455508	
5.625	  9.510709	
5.6875	  9.544484	
5.75	  9.519875	
5.8125	  9.469811	
5.875	  9.418854	
5.9375	  9.382584	
6	  9.359752	
6.0625	  9.365557	
6.125	  9.388588	
6.1875	  9.390861	
6.25	  9.395550	
6.3125	  9.390382	
6.375	  9.350732	
6.4375	  9.331365	
6.5	  9.346257	
6.5625	  9.371676	
6.625	  9.389118	
6.6875	  9.384702	
6.75	  9.385976	
6.8125	  9.381751	
6.875	  9.358381	
6.9375	  9.347037	
7	  9.338384	
7.0625	  9.356542	
7.125	  9.413635	
7.1875	  9.440069	
7.25	  9.439805	
7.3125	  9.435870	
7.375	  9.407373	
7.4375	  9.380630	
7.5	  9.394943	
7.5625	  9.449235	
7.625	  9.474443	
7.6875	  9.439768	
7.75	  9.416296	
7.8125	  9.408959	
7.875	  9.402761	
7.9375	  9.426345	
8	  9.455279	
8.0625	  9.484561	
8.125	  9.504653	
8.1875	  9.484502	
8.25	  9.460729	
8.3125	  9.443285	
8.375	  9.424645	
8.4375	  9.430683	
8.5	  9.459227	
8.5625	  9.487755	
8.625	  9.480773	
8.6875	  9.468787	
8.75	  9.486279	
8.8125	  9.457374	
8.875	  9.415890	
8.9375	  9.431517	
9	  9.434234	
9.0625	  9.428371	
9.125	  9.445659	
9.1875	  9.466470	
9.25	  9.483838	
9.3125	  9.459949	
9.375	  9.426191	
9.4375	  9.419666	
9.5	  9.403284	
9.5625	  9.416642	
9.625	  9.467437	
9.6875	  9.473825	
9.75	  9.436994	
9.8125	  9.391945	
9.875	  9.350942	
9.9375	  9.341351	
10	  9.356315	
10.0625	  9.367743	
10.125	  9.370851	
10.1875	  9.387207	
10.25	  9.412387	
10.3125	  9.394046	
10.375	  9.351636	
10.4375	  9.337454	
10.5	  9.338542	
10.5625	  9.360876	
10.625	  9.394980	
10.6875	  9.393527	
